<svg width="102" height="33" viewBox="0 0 102 33" fill="none" xmlns="http://www.w3.org/2000/svg">
<path d="M29.24 23.18C29.08 22.79 28.93 22.38 28.77 22.03L28.03 20.36L28 20.33C25.8 15.53 23.45 10.65 20.96 5.85001L20.86 5.65001C20.61 5.18001 20.36 4.66001 20.1 4.18001C19.78 3.61001 19.47 3.00001 18.96 2.42001C18.4628 1.81314 17.8372 1.32419 17.1282 0.98846C16.4192 0.652727 15.6444 0.478577 14.86 0.478577C14.0755 0.478577 13.3008 0.652727 12.5917 0.98846C11.8827 1.32419 11.2571 1.81314 10.76 2.42001C10.29 3.00001 9.93996 3.61001 9.61996 4.18001C9.36996 4.70001 9.11996 5.21001 8.85996 5.68001L8.75996 5.88001C6.30996 10.68 3.91996 15.56 1.71996 20.36L1.65996 20.42C1.43996 20.94 1.17996 21.48 0.929959 22.06C0.769959 22.41 0.609959 22.79 0.449959 23.21C0.0179916 24.3098 -0.119949 25.5032 0.0497312 26.6725C0.219412 27.8418 0.690857 28.9468 1.4176 29.8784C2.14435 30.8101 3.10131 31.5363 4.19418 31.9855C5.28705 32.4346 6.47811 32.5913 7.64996 32.44C8.77343 32.2921 9.85523 31.9179 10.83 31.34C12.13 30.61 13.38 29.55 14.78 28.02C16.18 29.55 17.46 30.61 18.73 31.35C19.9513 32.0669 21.3343 32.4625 22.75 32.5C24.3893 32.5068 25.9758 31.9203 27.2164 30.8487C28.4571 29.7772 29.2682 28.2929 29.5 26.67C29.7678 25.5038 29.6772 24.2839 29.24 23.17V23.18ZM14.88 24.84C13.16 22.64 12.04 20.62 11.66 18.89C11.5025 18.2489 11.4686 17.5838 11.56 16.93C11.63 16.42 11.82 15.97 12.08 15.59C12.68 14.72 13.73 14.18 14.88 14.18C15.4261 14.1633 15.9678 14.2825 16.4565 14.5269C16.9452 14.7712 17.3656 15.1331 17.68 15.58C17.94 15.98 18.13 16.42 18.19 16.93C18.29 17.51 18.25 18.18 18.09 18.89C17.71 20.59 16.59 22.63 14.88 24.84ZM27.62 26.32C27.5063 27.144 27.1788 27.9237 26.67 28.5817C26.1612 29.2397 25.4888 29.7528 24.72 30.07C23.96 30.39 23.12 30.48 22.3 30.39C21.5 30.29 20.7 30.03 19.88 29.55C18.5185 28.7085 17.2942 27.663 16.25 26.45C18.35 23.85 19.62 21.48 20.1 19.37C20.33 18.37 20.36 17.47 20.26 16.64C20.1351 15.8533 19.8417 15.1028 19.4 14.44C18.8956 13.7213 18.2223 13.1374 17.4394 12.7399C16.6565 12.3423 15.7879 12.1432 14.91 12.16C13.06 12.16 11.41 13.02 10.41 14.43C9.9598 15.0912 9.66887 15.8476 9.55996 16.64C9.42996 17.48 9.45996 18.41 9.71996 19.37C10.2 21.48 11.5 23.88 13.57 26.47C12.5434 27.7062 11.3163 28.7609 9.93996 29.59C9.10996 30.07 8.31996 30.32 7.51996 30.42C6.27584 30.5794 5.01911 30.2412 4.02292 29.4791C3.02673 28.717 2.37161 27.5925 2.19996 26.35C2.09996 25.55 2.16996 24.75 2.48996 23.85C2.58996 23.53 2.73996 23.21 2.89996 22.83C3.11996 22.31 3.37996 21.77 3.62996 21.23L3.66996 21.16C5.82996 16.39 8.18996 11.52 10.64 6.75001L10.74 6.55001C10.99 6.07001 11.24 5.56001 11.5 5.08001C11.76 4.57001 12.04 4.08001 12.4 3.68001C12.7116 3.30803 13.1009 3.00888 13.5406 2.80362C13.9804 2.59837 14.4597 2.49199 14.945 2.49199C15.4302 2.49199 15.9096 2.59837 16.3493 2.80362C16.789 3.00888 17.1783 3.30803 17.49 3.68001C17.84 4.08001 18.13 4.57001 18.39 5.08001C18.64 5.56001 18.89 6.08001 19.15 6.55001L19.25 6.75001C21.69 11.52 24.05 16.39 26.25 21.16L26.28 21.19C26.54 21.71 26.76 22.29 27.01 22.79C27.17 23.18 27.33 23.49 27.43 23.82C27.62 24.72 27.72 25.52 27.62 26.32ZM41.54 24.62C40.7864 24.631 40.0401 24.4723 39.3563 24.1555C38.6725 23.8387 38.0688 23.372 37.59 22.79C36.514 21.55 35.943 19.9511 35.99 18.31C35.9735 16.6332 36.563 15.0069 37.65 13.73C38.1528 13.1406 38.7787 12.6686 39.4836 12.3473C40.1885 12.0259 40.9553 11.863 41.73 11.87C42.4589 11.8501 43.1809 12.0158 43.8282 12.3517C44.4754 12.6875 45.0266 13.1825 45.43 13.79L45.53 12.22H48.45V24.3H45.52L45.42 22.54C45.0041 23.1887 44.4294 23.7203 43.7503 24.0843C43.0712 24.4483 42.3104 24.6328 41.54 24.62ZM42.3 21.74C42.88 21.74 43.39 21.58 43.87 21.29C44.31 20.97 44.67 20.55 44.95 20.04C45.2 19.53 45.33 18.92 45.33 18.24C45.3689 17.6494 45.254 17.0588 44.9963 16.5259C44.7386 15.9931 44.3471 15.5362 43.86 15.2C43.3919 14.9084 42.8514 14.7538 42.3 14.7538C41.7485 14.7538 41.208 14.9084 40.74 15.2C40.3 15.52 39.94 15.94 39.66 16.45C39.3955 17.0124 39.2654 17.6287 39.28 18.25C39.241 18.8406 39.3559 19.4312 39.6136 19.9641C39.8713 20.4969 40.2628 20.9538 40.75 21.29C41.22 21.58 41.73 21.74 42.3 21.74ZM53.45 8.96001C53.45 9.31001 53.39 9.63001 53.23 9.89001C53.07 10.14 52.85 10.37 52.56 10.53C52.27 10.69 51.96 10.75 51.64 10.75C51.32 10.75 51 10.69 50.71 10.53C50.4357 10.3773 50.205 10.157 50.04 9.89001C49.8851 9.60514 49.8091 9.28407 49.82 8.96001C49.82 8.60001 49.89 8.28001 50.04 8.03001C50.2 7.73001 50.43 7.55001 50.71 7.39001C51 7.23001 51.31 7.16001 51.64 7.16001C51.9583 7.15267 52.273 7.22806 52.5535 7.3788C52.8339 7.52954 53.0705 7.75048 53.24 8.02001C53.3855 8.31155 53.4576 8.63424 53.45 8.96001ZM50.05 24.26V12.2H53.23V24.28H50.04L50.05 24.26ZM61.73 15.36V15.4C61.58 15.33 61.38 15.3 61.23 15.27C61.03 15.23 60.87 15.23 60.68 15.23C59.79 15.23 59.12 15.49 58.68 16.03C58.2 16.58 57.98 17.35 57.98 18.34V24.27H54.79V12.19H57.72L57.82 14.02C58.14 13.38 58.52 12.9 59.06 12.54C59.5971 12.1902 60.2294 12.0155 60.87 12.04C61.1 12.04 61.32 12.06 61.51 12.1C61.61 12.13 61.67 12.13 61.73 12.16V15.36ZM63.01 24.26V7.24001H66.19V13.74C66.64 13.16 67.15 12.71 67.79 12.36C68.8032 11.8632 69.9542 11.7223 71.0573 11.96C72.1604 12.1977 73.1512 12.8001 73.87 13.67C74.9483 14.9126 75.5195 16.5155 75.47 18.16C75.4864 19.8368 74.897 21.4632 73.81 22.74C73.3072 23.3294 72.6813 23.8014 71.9763 24.1227C71.2714 24.4441 70.5046 24.607 69.73 24.6C69.001 24.62 68.279 24.4542 67.6317 24.1183C66.9845 23.7825 66.4333 23.2875 66.03 22.68L65.93 24.25L63.01 24.28V24.26ZM69.16 21.74C69.73 21.74 70.24 21.58 70.72 21.29C71.16 20.97 71.52 20.55 71.8 20.04C72.06 19.53 72.18 18.92 72.18 18.24C72.18 17.57 72.06 16.96 71.8 16.45C71.5374 15.9582 71.1684 15.5312 70.72 15.2C70.2519 14.9084 69.7115 14.7538 69.16 14.7538C68.6085 14.7538 68.068 14.9084 67.6 15.2C67.15 15.52 66.8 15.94 66.51 16.45C66.2455 17.0124 66.1154 17.6287 66.13 18.25C66.091 18.8406 66.2059 19.4312 66.4636 19.9641C66.7213 20.4969 67.1128 20.9538 67.6 21.29C68.07 21.58 68.58 21.74 69.16 21.74ZM76.67 24.27V12.19H79.6L79.7 13.76C80.0682 13.1582 80.5905 12.6657 81.2128 12.3334C81.8352 12.0011 82.535 11.8411 83.24 11.87C84.0461 11.8561 84.8384 12.0801 85.5178 12.5141C86.1973 12.9481 86.7337 13.5728 87.06 14.31C87.41 15.07 87.6 16.01 87.6 17.06V24.3H84.41V17.48C84.41 16.64 84.22 15.98 83.84 15.49C83.46 15.01 82.94 14.75 82.28 14.75C81.8 14.75 81.38 14.85 81.01 15.07C80.66 15.3 80.37 15.59 80.15 16C79.9275 16.4145 79.8172 16.8798 79.83 17.35V24.27H76.67ZM89.19 24.27V7.23001H92.38V13.73C92.812 13.1468 93.3741 12.6723 94.0216 12.3442C94.6691 12.0161 95.3841 11.8435 96.11 11.84C96.8635 11.829 97.6099 11.9878 98.2937 12.3046C98.9775 12.6214 99.5811 13.088 100.06 13.67C101.131 14.9125 101.698 16.5106 101.65 18.15C101.667 19.827 101.078 21.4536 99.99 22.73C99.4872 23.3194 98.8613 23.7914 98.1563 24.1127C97.4514 24.4341 96.6846 24.597 95.91 24.59C95.181 24.61 94.459 24.4442 93.8117 24.1083C93.1645 23.7725 92.6133 23.2775 92.21 22.67L92.12 24.24L89.19 24.27ZM95.37 21.74C95.95 21.74 96.46 21.58 96.93 21.29C97.38 20.97 97.73 20.55 98.02 20.04C98.27 19.53 98.4 18.92 98.4 18.24C98.4389 17.6494 98.324 17.0588 98.0663 16.5259C97.8086 15.9931 97.4171 15.5362 96.93 15.2C96.4619 14.9084 95.9215 14.7538 95.37 14.7538C94.8185 14.7538 94.278 14.9084 93.81 15.2C93.37 15.52 93.01 15.94 92.73 16.45C92.4508 17.0074 92.32 17.6273 92.35 18.25C92.311 18.8406 92.4259 19.4312 92.6836 19.9641C92.9413 20.4969 93.3328 20.9538 93.82 21.29C94.29 21.58 94.77 21.74 95.37 21.74Z" fill="#DE3151"/>
</svg>
