<svg width="32" height="33" viewBox="0 0 32 33" fill="none" xmlns="http://www.w3.org/2000/svg">
<g clip-path="url(#clip0_6563_981)">
<rect y="0.5" width="32" height="32" rx="16" fill="#F3F4F6"/>
<mask id="mask0_6563_981" style="mask-type:alpha" maskUnits="userSpaceOnUse" x="0" y="0" width="32" height="33">
<circle cx="16" cy="16.5" r="16" fill="#F3F4F6"/>
</mask>
<g mask="url(#mask0_6563_981)">
<path d="M32 28.4918V32.5012H0V28.5065C1.86127 26.0191 4.27721 24.0003 7.05572 22.6106C9.83423 21.2209 12.8987 20.4986 16.0053 20.5012C22.544 20.5012 28.352 23.6398 32 28.4918ZM21.336 12.4998C21.336 13.9143 20.7741 15.2709 19.7739 16.2711C18.7737 17.2713 17.4172 17.8332 16.0027 17.8332C14.5882 17.8332 13.2316 17.2713 12.2314 16.2711C11.2312 15.2709 10.6693 13.9143 10.6693 12.4998C10.6693 11.0853 11.2312 9.72879 12.2314 8.7286C13.2316 7.72841 14.5882 7.1665 16.0027 7.1665C17.4172 7.1665 18.7737 7.72841 19.7739 8.7286C20.7741 9.72879 21.336 11.0853 21.336 12.4998Z" fill="#D1D5DB"/>
</g>
</g>
<defs>
<clipPath id="clip0_6563_981">
<rect y="0.5" width="32" height="32" rx="16" fill="white"/>
</clipPath>
</defs>
</svg>
