<svg width="150" height="16" viewBox="0 0 150 16" fill="none" xmlns="http://www.w3.org/2000/svg">
<g clip-path="url(#clip0_6459_1355)">
<rect y="6" width="120" height="4" rx="1" fill="#E5E7EB"/>
<rect width="183" height="4" transform="translate(0 6)" fill="black"/>
</g>
<path d="M135.631 12.1193C135.131 12.1193 134.68 12.0199 134.28 11.821C133.879 11.6222 133.558 11.3494 133.317 11.0028C133.075 10.6562 132.943 10.2614 132.92 9.81818H133.943C133.983 10.2131 134.162 10.5398 134.48 10.7983C134.801 11.054 135.185 11.1818 135.631 11.1818C135.989 11.1818 136.307 11.098 136.585 10.9304C136.866 10.7628 137.087 10.5327 137.246 10.2401C137.408 9.9446 137.489 9.6108 137.489 9.23864C137.489 8.85795 137.405 8.51847 137.237 8.22017C137.072 7.91903 136.845 7.68182 136.555 7.50852C136.266 7.33523 135.935 7.24716 135.562 7.24432C135.295 7.24148 135.021 7.28267 134.74 7.3679C134.459 7.45028 134.227 7.55682 134.045 7.6875L133.057 7.56818L133.585 3.27273H138.119V4.21023H134.472L134.165 6.78409H134.216C134.395 6.64205 134.619 6.52415 134.889 6.4304C135.159 6.33665 135.44 6.28977 135.733 6.28977C136.267 6.28977 136.743 6.41761 137.161 6.6733C137.581 6.92614 137.911 7.27273 138.149 7.71307C138.391 8.15341 138.511 8.65625 138.511 9.22159C138.511 9.77841 138.386 10.2756 138.136 10.7131C137.889 11.1477 137.548 11.4915 137.114 11.7443C136.679 11.9943 136.185 12.1193 135.631 12.1193ZM140.626 12.0682C140.416 12.0682 140.235 11.9929 140.085 11.8423C139.934 11.6918 139.859 11.5114 139.859 11.3011C139.859 11.0909 139.934 10.9105 140.085 10.7599C140.235 10.6094 140.416 10.5341 140.626 10.5341C140.836 10.5341 141.017 10.6094 141.167 10.7599C141.318 10.9105 141.393 11.0909 141.393 11.3011C141.393 11.4403 141.358 11.5682 141.287 11.6847C141.218 11.8011 141.126 11.8949 141.01 11.9659C140.896 12.0341 140.768 12.0682 140.626 12.0682ZM145.723 12.1193C145.081 12.1193 144.534 11.9446 144.082 11.5952C143.63 11.2429 143.285 10.733 143.047 10.0653C142.808 9.39489 142.689 8.58523 142.689 7.63636C142.689 6.69318 142.808 5.88778 143.047 5.22017C143.288 4.54972 143.635 4.03835 144.086 3.68608C144.541 3.33097 145.086 3.15341 145.723 3.15341C146.359 3.15341 146.903 3.33097 147.355 3.68608C147.809 4.03835 148.156 4.54972 148.395 5.22017C148.636 5.88778 148.757 6.69318 148.757 7.63636C148.757 8.58523 148.637 9.39489 148.399 10.0653C148.16 10.733 147.815 11.2429 147.363 11.5952C146.912 11.9446 146.365 12.1193 145.723 12.1193ZM145.723 11.1818C146.359 11.1818 146.853 10.875 147.206 10.2614C147.558 9.64773 147.734 8.77273 147.734 7.63636C147.734 6.88068 147.653 6.23722 147.491 5.70597C147.332 5.17472 147.102 4.76989 146.801 4.49148C146.502 4.21307 146.143 4.07386 145.723 4.07386C145.092 4.07386 144.599 4.38494 144.244 5.0071C143.889 5.62642 143.711 6.50284 143.711 7.63636C143.711 8.39205 143.791 9.03409 143.95 9.5625C144.109 10.0909 144.338 10.4929 144.636 10.7685C144.937 11.044 145.299 11.1818 145.723 11.1818Z" fill="black"/>
<defs>
<clipPath id="clip0_6459_1355">
<rect y="6" width="120" height="4" rx="1" fill="white"/>
</clipPath>
</defs>
</svg>
