<svg width="150" height="16" viewBox="0 0 150 16" fill="none" xmlns="http://www.w3.org/2000/svg">
<rect y="6" width="120" height="4" rx="1" fill="#E5E7EB"/>
<rect width="88" height="4" transform="translate(0 6)" fill="black"/>
<path d="M132.699 10.2102V9.34091L136.534 3.27273H137.165V4.61932H136.739L133.841 9.20455V9.27273H139.006V10.2102H132.699ZM136.807 12V9.94602V9.54119V3.27273H137.812V12H136.807ZM140.942 12.0682C140.732 12.0682 140.552 11.9929 140.401 11.8423C140.251 11.6918 140.175 11.5114 140.175 11.3011C140.175 11.0909 140.251 10.9105 140.401 10.7599C140.552 10.6094 140.732 10.5341 140.942 10.5341C141.153 10.5341 141.333 10.6094 141.484 10.7599C141.634 10.9105 141.71 11.0909 141.71 11.3011C141.71 11.4403 141.674 11.5682 141.603 11.6847C141.535 11.8011 141.442 11.8949 141.326 11.9659C141.212 12.0341 141.085 12.0682 140.942 12.0682ZM143.594 12L147.498 4.27841V4.21023H142.998V3.27273H148.588V4.26136L144.702 12H143.594Z" fill="black"/>
</svg>
