<svg width="150" height="16" viewBox="0 0 150 16" fill="none" xmlns="http://www.w3.org/2000/svg">
<rect y="6" width="120" height="4" rx="1" fill="#E5E7EB"/>
<rect width="108" height="4" transform="translate(0 6)" fill="black"/>
<path d="M132.699 10.2102V9.34091L136.534 3.27273H137.165V4.61932H136.739L133.841 9.20455V9.27273H139.006V10.2102H132.699ZM136.807 12V9.94602V9.54119V3.27273H137.812V12H136.807ZM140.942 12.0682C140.732 12.0682 140.552 11.9929 140.401 11.8423C140.251 11.6918 140.175 11.5114 140.175 11.3011C140.175 11.0909 140.251 10.9105 140.401 10.7599C140.552 10.6094 140.732 10.5341 140.942 10.5341C141.153 10.5341 141.333 10.6094 141.484 10.7599C141.634 10.9105 141.71 11.0909 141.71 11.3011C141.71 11.4403 141.674 11.5682 141.603 11.6847C141.535 11.8011 141.442 11.8949 141.326 11.9659C141.212 12.0341 141.085 12.0682 140.942 12.0682ZM146.194 3.15341C146.551 3.15625 146.909 3.22443 147.267 3.35795C147.625 3.49148 147.952 3.71307 148.248 4.02273C148.543 4.32955 148.78 4.74858 148.959 5.27983C149.138 5.81108 149.228 6.47727 149.228 7.27841C149.228 8.05398 149.154 8.7429 149.006 9.34517C148.861 9.9446 148.651 10.4503 148.375 10.8622C148.103 11.2741 147.77 11.5866 147.378 11.7997C146.989 12.0128 146.549 12.1193 146.057 12.1193C145.569 12.1193 145.132 12.0227 144.749 11.8295C144.368 11.6335 144.056 11.3622 143.811 11.0156C143.57 10.6662 143.415 10.2614 143.347 9.80114H144.387C144.48 10.2017 144.667 10.5327 144.945 10.794C145.226 11.0526 145.597 11.1818 146.057 11.1818C146.73 11.1818 147.262 10.8878 147.651 10.2997C148.043 9.71165 148.239 8.88068 148.239 7.80682H148.171C148.012 8.04545 147.823 8.25142 147.604 8.42472C147.385 8.59801 147.142 8.73153 146.875 8.82528C146.608 8.91903 146.324 8.96591 146.023 8.96591C145.523 8.96591 145.064 8.84233 144.647 8.59517C144.232 8.34517 143.9 8.00284 143.65 7.56818C143.402 7.13068 143.279 6.63068 143.279 6.06818C143.279 5.53409 143.398 5.04545 143.637 4.60227C143.878 4.15625 144.216 3.80114 144.651 3.53693C145.088 3.27273 145.603 3.14489 146.194 3.15341ZM146.194 4.09091C145.836 4.09091 145.513 4.1804 145.226 4.35938C144.942 4.53551 144.716 4.77415 144.549 5.07528C144.384 5.37358 144.301 5.70455 144.301 6.06818C144.301 6.43182 144.381 6.76278 144.54 7.06108C144.702 7.35653 144.922 7.59233 145.201 7.76847C145.482 7.94176 145.801 8.02841 146.159 8.02841C146.429 8.02841 146.681 7.97585 146.914 7.87074C147.147 7.76278 147.35 7.61648 147.523 7.43182C147.699 7.24432 147.837 7.03267 147.936 6.79688C148.036 6.55824 148.086 6.30966 148.086 6.05114C148.086 5.71023 148.003 5.39062 147.838 5.09233C147.676 4.79403 147.452 4.55256 147.165 4.3679C146.881 4.18324 146.557 4.09091 146.194 4.09091Z" fill="black"/>
</svg>
