<svg width="32" height="32" viewBox="0 0 32 32" fill="none" xmlns="http://www.w3.org/2000/svg">
<path d="M22.9721 9.02782L22.231 8.91267C22.1943 9.14913 22.2726 9.38893 22.4418 9.55814C22.611 9.72736 22.8508 9.80566 23.0873 9.76892L22.9721 9.02782ZM21.5902 12.8846L22.1503 12.3858C22.013 12.2317 21.8182 12.1409 21.6119 12.1349C21.4055 12.129 21.2059 12.2083 21.0599 12.3543L21.5902 12.8846ZM12.8845 21.5903L12.3542 21.06C12.2082 21.206 12.1288 21.4057 12.1348 21.612C12.1408 21.8184 12.2315 22.0131 12.3857 22.1504L12.8845 21.5903ZM9.02769 22.9723L9.7688 23.0874C9.80554 22.8509 9.72723 22.6111 9.55802 22.4419C9.38881 22.2727 9.14901 22.1944 8.91255 22.2312L9.02769 22.9723ZM10.4096 19.1155L9.84955 19.6143C9.98684 19.7684 10.1816 19.8592 10.388 19.8651C10.5943 19.8711 10.794 19.7918 10.94 19.6458L10.4096 19.1155ZM19.1153 10.4097L19.6457 10.9401C19.7916 10.7941 19.871 10.5944 19.865 10.3881C19.8591 10.1817 19.7683 9.98696 19.6141 9.84967L19.1153 10.4097ZM23.7133 9.14296C23.7374 8.98731 23.7499 8.82821 23.7499 8.66671H22.2499C22.2499 8.75084 22.2434 8.83294 22.231 8.91267L23.7133 9.14296ZM23.3333 8.25004C23.1717 8.25004 23.0126 8.26253 22.857 8.28671L23.0873 9.76892C23.167 9.75654 23.2491 9.75004 23.3333 9.75004V8.25004ZM26.4166 11.3334C26.4166 9.6305 25.0361 8.25004 23.3333 8.25004V9.75004C24.2077 9.75004 24.9166 10.4589 24.9166 11.3334H26.4166ZM23.3333 14.4167C25.0361 14.4167 26.4166 13.0363 26.4166 11.3334H24.9166C24.9166 12.2078 24.2077 12.9167 23.3333 12.9167V14.4167ZM21.0301 13.3834C21.5938 14.0163 22.4172 14.4167 23.3333 14.4167V12.9167C22.863 12.9167 22.4414 12.7126 22.1503 12.3858L21.0301 13.3834ZM13.4148 22.1207L22.1205 13.415L21.0599 12.3543L12.3542 21.06L13.4148 22.1207ZM14.4166 23.3334C14.4166 22.4174 14.0162 21.5939 13.3833 21.0303L12.3857 22.1504C12.7125 22.4415 12.9166 22.8631 12.9166 23.3334H14.4166ZM11.3333 26.4167C13.0361 26.4167 14.4166 25.0363 14.4166 23.3334H12.9166C12.9166 24.2078 12.2077 24.9167 11.3333 24.9167V26.4167ZM8.24992 23.3334C8.24992 25.0363 9.63037 26.4167 11.3333 26.4167V24.9167C10.4588 24.9167 9.74992 24.2078 9.74992 23.3334H8.24992ZM8.28658 22.8571C8.2624 23.0128 8.24992 23.1719 8.24992 23.3334H9.74992C9.74992 23.2493 9.75641 23.1671 9.7688 23.0874L8.28658 22.8571ZM8.66659 23.75C8.82809 23.75 8.98719 23.7376 9.14284 23.7134L8.91255 22.2312C8.83282 22.2435 8.75071 22.25 8.66659 22.25V23.75ZM5.58325 20.6667C5.58325 22.3696 6.96371 23.75 8.66659 23.75V22.25C7.79213 22.25 7.08325 21.5412 7.08325 20.6667H5.58325ZM8.66659 17.5834C6.96371 17.5834 5.58325 18.9638 5.58325 20.6667H7.08325C7.08325 19.7923 7.79213 19.0834 8.66659 19.0834V17.5834ZM10.9697 18.6167C10.4061 17.9838 9.58259 17.5834 8.66659 17.5834V19.0834C9.13684 19.0834 9.55847 19.2874 9.84955 19.6143L10.9697 18.6167ZM18.585 9.87942L9.87929 18.5851L10.94 19.6458L19.6457 10.9401L18.585 9.87942ZM17.5833 8.66671C17.5833 9.58271 17.9836 10.4062 18.6165 10.9698L19.6141 9.84967C19.2873 9.55859 19.0833 9.13696 19.0833 8.66671H17.5833ZM20.6666 5.58337C18.9637 5.58337 17.5833 6.96383 17.5833 8.66671H19.0833C19.0833 7.79226 19.7921 7.08337 20.6666 7.08337V5.58337ZM23.7499 8.66671C23.7499 6.96383 22.3695 5.58337 20.6666 5.58337V7.08337C21.541 7.08337 22.2499 7.79226 22.2499 8.66671H23.7499Z" fill="#141414"/>
</svg>
