<svg width="25" height="24" viewBox="0 0 25 24" fill="none" xmlns="http://www.w3.org/2000/svg">
<path d="M17.3333 4.75C17.3333 5.89705 16.2303 7 15.0833 7C16.2303 7 17.3333 8.10295 17.3333 9.25C17.3333 8.10295 18.4362 7 19.5833 7C18.4362 7 17.3333 5.89705 17.3333 4.75Z" stroke="black" stroke-width="1.5" stroke-linecap="round" stroke-linejoin="round"/>
<path d="M17.3333 14.75C17.3333 15.8971 16.2303 17 15.0833 17C16.2303 17 17.3333 18.1029 17.3333 19.25C17.3333 18.1029 18.4362 17 19.5833 17C18.4362 17 17.3333 15.8971 17.3333 14.75Z" stroke="black" stroke-width="1.5" stroke-linecap="round" stroke-linejoin="round"/>
<path d="M9.33325 7.75C9.33325 9.91666 7.24991 12 5.08325 12C7.24991 12 9.33325 14.0833 9.33325 16.25C9.33325 14.0833 11.4166 12 13.5833 12C11.4166 12 9.33325 9.91666 9.33325 7.75Z" stroke="black" stroke-width="1.5" stroke-linecap="round" stroke-linejoin="round"/>
</svg>
