<svg width="41" height="20" viewBox="0 0 41 20" fill="none" xmlns="http://www.w3.org/2000/svg">
<path d="M7.99996 5.16675L9.16663 8.83341H12.8333L9.83329 11.1667L10.8333 14.8334L7.99996 12.5001L5.16663 14.8334L6.16663 11.1667L3.16663 8.83341H6.83329L7.99996 5.16675Z" stroke="#DE3151" stroke-width="1.5" stroke-linecap="round" stroke-linejoin="round"/>
<path d="M24.3402 15.1392C23.7171 15.1392 23.157 15.0199 22.6598 14.7812C22.166 14.5393 21.7715 14.2079 21.4766 13.7869C21.1816 13.366 21.0241 12.8854 21.0043 12.3452H22.4957C22.5322 12.7827 22.7261 13.1423 23.0774 13.424C23.4287 13.7057 23.8497 13.8466 24.3402 13.8466C24.7313 13.8466 25.0777 13.7571 25.3793 13.5781C25.6842 13.3958 25.9228 13.1456 26.0952 12.8274C26.2708 12.5092 26.3587 12.1463 26.3587 11.7386C26.3587 11.3243 26.2692 10.9548 26.0902 10.63C25.9112 10.3052 25.6643 10.05 25.3494 9.86435C25.0379 9.67874 24.6799 9.58428 24.2756 9.58097C23.9673 9.58097 23.6574 9.634 23.3459 9.74006C23.0343 9.84612 22.7824 9.98532 22.5902 10.1577L21.1832 9.94886L21.755 4.81818H27.353V6.13565H23.0327L22.7095 8.98438H22.7692C22.968 8.79214 23.2315 8.63139 23.5597 8.50213C23.8911 8.37287 24.2457 8.30824 24.6236 8.30824C25.2434 8.30824 25.7952 8.45573 26.2791 8.75071C26.7663 9.04569 27.1491 9.44839 27.4276 9.95881C27.7093 10.4659 27.8485 11.0492 27.8452 11.7088C27.8485 12.3684 27.6993 12.9567 27.3977 13.4737C27.0994 13.9908 26.6851 14.3984 26.1548 14.6967C25.6278 14.9917 25.023 15.1392 24.3402 15.1392ZM30.2912 15.0945C30.0194 15.0945 29.7857 14.9983 29.5902 14.8061C29.3946 14.6106 29.2969 14.3752 29.2969 14.1001C29.2969 13.8284 29.3946 13.5964 29.5902 13.4041C29.7857 13.2086 30.0194 13.1108 30.2912 13.1108C30.563 13.1108 30.7966 13.2086 30.9922 13.4041C31.1877 13.5964 31.2855 13.8284 31.2855 14.1001C31.2855 14.2824 31.2391 14.4498 31.1463 14.6023C31.0568 14.7514 30.9375 14.8707 30.7884 14.9602C30.6392 15.0497 30.4735 15.0945 30.2912 15.0945ZM36.4324 15.169C35.6468 15.1657 34.9757 14.9586 34.4189 14.5476C33.862 14.1366 33.4361 13.5384 33.1412 12.7528C32.8462 11.9673 32.6987 11.0211 32.6987 9.91406C32.6987 8.81037 32.8462 7.86742 33.1412 7.08523C33.4395 6.30303 33.867 5.70644 34.4238 5.29545C34.984 4.88447 35.6535 4.67898 36.4324 4.67898C37.2112 4.67898 37.8791 4.88613 38.4359 5.30043C38.9927 5.71141 39.4186 6.308 39.7136 7.0902C40.0119 7.86908 40.161 8.81037 40.161 9.91406C40.161 11.0244 40.0136 11.9723 39.7186 12.7578C39.4236 13.54 38.9977 14.1383 38.4409 14.5526C37.8841 14.9635 37.2145 15.169 36.4324 15.169ZM36.4324 13.8416C37.1217 13.8416 37.6603 13.5052 38.0481 12.8324C38.4392 12.1596 38.6348 11.1868 38.6348 9.91406C38.6348 9.06889 38.5453 8.35464 38.3663 7.77131C38.1906 7.18466 37.9371 6.74053 37.6056 6.43892C37.2775 6.134 36.8864 5.98153 36.4324 5.98153C35.7463 5.98153 35.2077 6.3196 34.8166 6.99574C34.4255 7.67187 34.2283 8.64465 34.225 9.91406C34.225 10.7625 34.3128 11.4801 34.4885 12.0668C34.6674 12.6501 34.921 13.0926 35.2491 13.3942C35.5772 13.6925 35.9717 13.8416 36.4324 13.8416Z" fill="black"/>
</svg>
