<svg width="17" height="15" viewBox="0 0 17 15" fill="none" xmlns="http://www.w3.org/2000/svg">
<path fill-rule="evenodd" clip-rule="evenodd" d="M14.6615 4.07607C14.6673 4.22598 14.6692 4.37582 14.6692 4.52572C14.6692 9.07046 11.4722 14.3171 5.62599 14.3171C3.83014 14.3171 2.16025 13.7447 0.753281 12.7704C1.00199 12.7976 1.25457 12.8181 1.51103 12.8181C3.00004 12.8181 4.37148 12.2661 5.45933 11.3394C4.06851 11.319 2.8941 10.3174 2.48907 8.95463C2.68351 8.99551 2.88375 9.01601 3.08853 9.01601C3.37729 9.01601 3.65765 8.97518 3.92638 8.89341C2.47096 8.57998 1.37473 7.19002 1.37473 5.52066C1.37473 5.50022 1.37473 5.49337 1.37473 5.47974C1.80367 5.73184 2.29461 5.88848 2.81593 5.90892C1.96193 5.28887 1.40055 4.23278 1.40055 3.04038C1.40055 2.41352 1.55688 1.8207 1.83207 1.30967C3.39925 3.39466 5.74228 4.76424 8.38373 4.90733C8.32947 4.65522 8.30168 4.38955 8.30168 4.12382C8.30168 2.22279 9.7248 0.682861 11.4806 0.682861C12.3947 0.682861 13.2203 1.09856 13.7997 1.7663C14.5252 1.6164 15.2047 1.33024 15.8197 0.935048C15.5814 1.73907 15.0781 2.41348 14.4205 2.83593C15.0639 2.75417 15.6776 2.57034 16.2467 2.29779C15.8197 2.98597 15.2823 3.5923 14.6615 4.07607Z" fill="#4B5563"/>
</svg>
