<svg width="32" height="32" viewBox="0 0 32 32" fill="none" xmlns="http://www.w3.org/2000/svg">
<path d="M16.6667 24C16.6667 24.3682 16.3682 24.6667 16 24.6667C15.6319 24.6667 15.3334 24.3682 15.3334 24C15.3334 23.6319 15.6319 23.3334 16 23.3334C16.3682 23.3334 16.6667 23.6319 16.6667 24Z" stroke="black"/>
<path d="M12.6666 19.417C13.602 18.7355 14.754 18.3334 16 18.3334C17.2459 18.3334 18.3979 18.7355 19.3333 19.417" stroke="black" stroke-width="1.5" stroke-linecap="round" stroke-linejoin="round"/>
<path d="M22.2837 14.9701C20.5024 13.7282 18.3364 13 16.0003 13C13.6641 13 11.4981 13.7282 9.7168 14.9701" stroke="black" stroke-width="1.5" stroke-linecap="round" stroke-linejoin="round"/>
<path d="M6.66663 10.5942C9.31224 8.74886 12.5297 7.66663 16 7.66663C19.4702 7.66663 22.6877 8.74886 25.3333 10.5942" stroke="black" stroke-width="1.5" stroke-linecap="round" stroke-linejoin="round"/>
</svg>
